# xmcd CD database file
#
# Track frame offsets:
#	183
#	16825
#	33723
#	51375
#	69480
#	81083
#	120480
#	134148
#	155265
#
# Disc length: 2358 seconds
#
# Revision: 5
# Processed by: cddbd v1.5.2PL0 Copyright (c) Steve Scherf et al.
# Submitted via: CDex 1.51
#
DISCID=77093409
DTITLE=Eric Clapton - Slowhand
DYEAR=1977
DGENRE=Rock
TTITLE0=Cocaine
TTITLE1=Wonderful Tonight
TTITLE2=Lay Down Sally
TTITLE3=Next Time You See Her
TTITLE4=We're All The Way
TTITLE5=The Core
TTITLE6=May You Never
TTITLE7=Mean Old Frisco
TTITLE8=Peaches And Diesel
EXTD=YEAR: 1977
EXTT0=
EXTT1=
EXTT2=
EXTT3=
EXTT4=
EXTT5=
EXTT6=
EXTT7=
EXTT8=
PLAYORDER=
